<svg width="2048" height="1152" viewBox="0 0 2048 1152" fill="none" xmlns="http://www.w3.org/2000/svg">
<rect width="2048" height="1152" fill="url(#paint0_radial_1_16)"/>
<path d="M931.194 540.8C931.194 545.4 930.06 549.633 927.794 553.5C925.527 557.3 922.494 560.333 918.694 562.6C914.894 564.867 910.66 566 905.994 566C901.86 566 898.027 565.1 894.494 563.3C890.96 561.5 888.027 559.067 885.694 556C883.427 559.067 880.527 561.5 876.994 563.3C873.46 565.1 869.627 566 865.494 566C860.894 566 856.66 564.867 852.794 562.6C848.994 560.333 845.96 557.3 843.694 553.5C841.427 549.633 840.294 545.4 840.294 540.8V496H850.294V540.8C850.294 543.6 850.96 546.167 852.294 548.5C853.694 550.767 855.527 552.6 857.794 554C860.127 555.333 862.694 556 865.494 556C868.227 556 870.727 555.367 872.994 554.1C875.26 552.767 877.06 551 878.394 548.8C879.794 546.6 880.56 544.167 880.694 541.5V496H890.794V540.8C890.794 543.6 891.46 546.167 892.794 548.5C894.194 550.767 896.027 552.6 898.294 554C900.627 555.333 903.194 556 905.994 556C908.794 556 911.327 555.333 913.594 554C915.927 552.6 917.76 550.767 919.094 548.5C920.494 546.167 921.194 543.6 921.194 540.8V496H931.194V540.8ZM1019.74 566H947.341V496H1019.74V506H957.341V556H1019.74V566ZM1011.24 536H962.341V526H1011.24V536ZM1114.61 531C1114.61 535.867 1113.84 540.433 1112.31 544.7C1110.77 548.9 1108.57 552.6 1105.71 555.8C1102.91 559 1099.51 561.5 1095.51 563.3C1091.57 565.1 1087.21 566 1082.41 566H1047.11V556H1082.41C1087.01 556 1090.97 554.867 1094.31 552.6C1097.64 550.333 1100.17 547.333 1101.91 543.6C1103.71 539.8 1104.61 535.6 1104.61 531C1104.61 526.4 1103.71 522.2 1101.91 518.4C1100.17 514.6 1097.64 511.6 1094.31 509.4C1090.97 507.133 1087.01 506 1082.41 506H1042.11V566H1032.11V496H1082.41C1087.21 496 1091.57 496.9 1095.51 498.7C1099.51 500.5 1102.91 503.033 1105.71 506.3C1108.57 509.5 1110.77 513.233 1112.31 517.5C1113.84 521.7 1114.61 526.2 1114.61 531ZM1211.02 531C1211.02 535.867 1210.25 540.433 1208.72 544.7C1207.19 548.9 1204.99 552.6 1202.12 555.8C1199.32 559 1195.95 561.5 1192.02 563.3C1188.09 565.1 1183.72 566 1178.92 566H1155.62C1150.75 566 1146.35 565.1 1142.42 563.3C1138.49 561.5 1135.09 559 1132.22 555.8C1129.42 552.6 1127.25 548.9 1125.72 544.7C1124.19 540.433 1123.42 535.867 1123.42 531C1123.42 526.2 1124.19 521.7 1125.72 517.5C1127.25 513.233 1129.42 509.5 1132.22 506.3C1135.09 503.033 1138.49 500.5 1142.42 498.7C1146.35 496.9 1150.75 496 1155.62 496H1178.92C1183.72 496 1188.09 496.9 1192.02 498.7C1195.95 500.5 1199.32 503.033 1202.12 506.3C1204.99 509.5 1207.19 513.233 1208.72 517.5C1210.25 521.7 1211.02 526.2 1211.02 531ZM1201.02 531C1201.02 526.4 1200.12 522.2 1198.32 518.4C1196.59 514.6 1194.05 511.6 1190.72 509.4C1187.45 507.133 1183.52 506 1178.92 506H1155.62C1151.02 506 1147.05 507.133 1143.72 509.4C1140.45 511.6 1137.92 514.6 1136.12 518.4C1134.32 522.2 1133.42 526.4 1133.42 531C1133.42 535.6 1134.32 539.8 1136.12 543.6C1137.92 547.333 1140.45 550.333 1143.72 552.6C1147.05 554.867 1151.02 556 1155.62 556H1178.92C1183.52 556 1187.45 554.867 1190.72 552.6C1194.05 550.333 1196.59 547.333 1198.32 543.6C1200.12 539.8 1201.02 535.6 1201.02 531Z" fill="#090C5A"/>
<path d="M803.595 666H797.595V624H803.595V666ZM819.649 666H813.649V624H816.649C819.569 624 822.729 624.56 826.129 625.68C829.569 626.8 833.009 628.38 836.449 630.42C839.889 632.46 843.129 634.9 846.169 637.74C849.249 640.54 851.889 643.66 854.089 647.1V624H860.089V666H854.089C854.089 662.32 853.329 658.8 851.809 655.44C850.329 652.04 848.349 648.92 845.869 646.08C843.389 643.2 840.629 640.66 837.589 638.46C834.589 636.22 831.529 634.4 828.409 633C825.289 631.56 822.369 630.64 819.649 630.24V666ZM919.692 645C919.692 647.92 919.232 650.66 918.312 653.22C917.392 655.74 916.072 657.96 914.352 659.88C912.672 661.8 910.632 663.3 908.232 664.38C905.872 665.46 903.252 666 900.372 666H879.192V660H900.372C903.132 660 905.512 659.32 907.512 657.96C909.512 656.6 911.032 654.8 912.072 652.56C913.152 650.28 913.692 647.76 913.692 645C913.692 642.24 913.152 639.72 912.072 637.44C911.032 635.16 909.512 633.36 907.512 632.04C905.512 630.68 903.132 630 900.372 630H876.192V666H870.192V624H900.372C903.252 624 905.872 624.54 908.232 625.62C910.632 626.7 912.672 628.22 914.352 630.18C916.072 632.1 917.392 634.34 918.312 636.9C919.232 639.42 919.692 642.12 919.692 645ZM972.38 624L972.32 645C972.32 647.92 971.78 650.66 970.7 653.22C969.62 655.74 968.12 657.96 966.2 659.88C964.28 661.8 962.04 663.3 959.48 664.38C956.96 665.46 954.26 666 951.38 666H946.94C944.06 666 941.34 665.46 938.78 664.38C936.26 663.3 934.04 661.8 932.12 659.88C930.2 657.92 928.7 655.68 927.62 653.16C926.54 650.6 926 647.88 926 645V624H932V645C932 647.76 932.66 650.28 933.98 652.56C935.34 654.8 937.16 656.6 939.44 657.96C941.72 659.32 944.22 660 946.94 660H951.38C954.14 660 956.64 659.32 958.88 657.96C961.16 656.6 962.96 654.8 964.28 652.56C965.64 650.28 966.32 647.76 966.32 645V624H972.38ZM1027.37 654C1027.37 656.2 1026.83 658.22 1025.75 660.06C1024.67 661.86 1023.23 663.3 1021.43 664.38C1019.63 665.46 1017.61 666 1015.37 666H978.893V660H1015.37C1017.05 660 1018.47 659.42 1019.63 658.26C1020.79 657.06 1021.37 655.64 1021.37 654C1021.37 652.36 1020.79 650.96 1019.63 649.8C1018.47 648.6 1017.05 648 1015.37 648H990.893C988.693 648 986.673 647.46 984.833 646.38C983.033 645.3 981.593 643.86 980.513 642.06C979.433 640.22 978.893 638.2 978.893 636C978.893 633.8 979.433 631.8 980.513 630C981.593 628.16 983.033 626.7 984.833 625.62C986.673 624.54 988.693 624 990.893 624H1024.37V630H990.893C989.253 630 987.833 630.6 986.633 631.8C985.473 632.96 984.893 634.36 984.893 636C984.893 637.64 985.473 639.06 986.633 640.26C987.833 641.42 989.253 642 990.893 642H1015.37C1017.61 642 1019.63 642.54 1021.43 643.62C1023.23 644.7 1024.67 646.16 1025.75 648C1026.83 649.8 1027.37 651.8 1027.37 654ZM1057.17 666H1051.17V630H1029.93V624H1078.41V630H1057.17V666ZM1132.54 666H1124.44L1111.84 654H1093.42V648.06H1117.54C1119.22 648.06 1120.74 647.66 1122.1 646.86C1123.46 646.02 1124.54 644.92 1125.34 643.56C1126.14 642.16 1126.54 640.64 1126.54 639C1126.54 637.32 1126.14 635.8 1125.34 634.44C1124.54 633.08 1123.46 632 1122.1 631.2C1120.74 630.4 1119.22 630 1117.54 630H1090.06V666H1084.06V624H1117.54C1120.3 624 1122.82 624.68 1125.1 626.04C1127.38 627.36 1129.18 629.16 1130.5 631.44C1131.86 633.72 1132.54 636.24 1132.54 639C1132.54 641.48 1131.98 643.78 1130.86 645.9C1129.78 648.02 1128.28 649.78 1126.36 651.18C1124.48 652.54 1122.34 653.42 1119.94 653.82L1132.54 666ZM1146.19 666H1140.19V624H1146.19V666ZM1199.69 666H1156.25V624H1199.69V630H1162.25V660H1199.69V666ZM1194.59 648H1165.25V642H1194.59V648ZM1253.49 654C1253.49 656.2 1252.95 658.22 1251.87 660.06C1250.79 661.86 1249.35 663.3 1247.55 664.38C1245.75 665.46 1243.73 666 1241.49 666H1205.01V660H1241.49C1243.17 660 1244.59 659.42 1245.75 658.26C1246.91 657.06 1247.49 655.64 1247.49 654C1247.49 652.36 1246.91 650.96 1245.75 649.8C1244.59 648.6 1243.17 648 1241.49 648H1217.01C1214.81 648 1212.79 647.46 1210.95 646.38C1209.15 645.3 1207.71 643.86 1206.63 642.06C1205.55 640.22 1205.01 638.2 1205.01 636C1205.01 633.8 1205.55 631.8 1206.63 630C1207.71 628.16 1209.15 626.7 1210.95 625.62C1212.79 624.54 1214.81 624 1217.01 624H1250.49V630H1217.01C1215.37 630 1213.95 630.6 1212.75 631.8C1211.59 632.96 1211.01 634.36 1211.01 636C1211.01 637.64 1211.59 639.06 1212.75 640.26C1213.95 641.42 1215.37 642 1217.01 642H1241.49C1243.73 642 1245.75 642.54 1247.55 643.62C1249.35 644.7 1250.79 646.16 1251.87 648C1252.95 649.8 1253.49 651.8 1253.49 654Z" fill="#090C5A"/>
<defs>
<radialGradient id="paint0_radial_1_16" cx="0" cy="0" r="1" gradientUnits="userSpaceOnUse" gradientTransform="translate(1024 576) rotate(90) scale(576 1024)">
<stop stop-color="white"/>
<stop offset="1" stop-color="#090C5A"/>
</radialGradient>
</defs>
</svg>
